<svg
  xmlns="http://www.w3.org/2000/svg"
  viewBox="0 0 24 24"
  width="16"
  height="16"
  fill="#000000"
>
  <path
    d="M12.3 24a39.034 39.034 0 01-4.5-4.707c-2.057-2.547-4.5-6.341-4.5-9.957-.002-3.775 2.191-7.18 5.556-8.625 3.364-1.445 7.237-.646 9.81 2.025 1.693 1.748 2.642 4.124 2.634 6.6 0 3.616-2.443 7.41-4.5 9.957A39.041 39.041 0 0112.3 24zm0-18.663c-1.378 0-2.651.762-3.34 2a4.127 4.127 0 000 3.999c.689 1.237 1.962 2 3.34 2 2.13 0 3.857-1.791 3.857-4 0-2.208-1.727-3.999-3.857-3.999z"
  ></path>
</svg>