<svg
  xmlns="http://www.w3.org/2000/svg"
  viewBox="0 0 24 24"
  width="16"
  height="16"
  fill="#000000"
>
  <path
    d="M11.767 3.166a6.411 6.411 0 019.067 9.067l-.001.001-1.716 1.717a1.558 1.558 0 11-2.204-2.204l1.717-1.717a3.295 3.295 0 10-4.659-4.66l-.002.002-1.716 1.716a1.558 1.558 0 01-2.204-2.204l1.717-1.717z"
  ></path>
  <path
    d="M14.34 7.457a1.558 1.558 0 112.203 2.204l-6.864 6.863a1.558 1.558 0 01-2.203-2.203l6.863-6.864z"
  ></path>
  <path
    d="M4.902 10.03a1.558 1.558 0 012.204 2.204L5.39 13.95a3.295 3.295 0 004.66 4.66l1.715-1.715a1.558 1.558 0 012.204 2.204l-1.715 1.715a6.374 6.374 0 01-4.535 1.878 6.411 6.411 0 01-4.533-10.944l1.716-1.717z"
  ></path>
</svg>